<?xml version="1.0" encoding="utf-8"?>
<!-- Generator: Adobe Illustrator 16.0.3, SVG Export Plug-In . SVG Version: 6.00 Build 0)  -->
<!DOCTYPE svg PUBLIC "-//W3C//DTD SVG 1.1//EN" "http://www.w3.org/Graphics/SVG/1.1/DTD/svg11.dtd">
<svg version="1.1" id="Layer_1" xmlns="http://www.w3.org/2000/svg" xmlns:xlink="http://www.w3.org/1999/xlink" x="0px" y="0px"
	 width="26px" height="26px" viewBox="0 0 26 26" enable-background="new 0 0 26 26" xml:space="preserve">
<path fill="none" stroke="#000000" stroke-width="1.5" stroke-miterlimit="10" d="M18.372,4.382c0.084,0,0.149,0,0.219,0
	c0.786,0,1.57-0.007,2.358,0.004c0.756,0.01,1.359,0.518,1.516,1.255c0.008,0.034,0.025,0.562,0.04,0.595c0,4.79,0,8.735,0,13.523
	c-0.017,0.048-0.032,0.935-0.046,0.979c-0.161,0.609-0.544,1-1.148,1.176c-0.057,0.016-0.111,0.033-0.168,0.052
	c-5.381,0-10.76,0-16.138,0c-0.017-0.01-0.028-0.024-0.045-0.028c-0.71-0.149-1.14-0.576-1.289-1.287
	c-0.004-0.02-0.021-0.873-0.028-0.892c0-4.788,0-8.734,0-13.523C3.65,6.222,3.666,5.712,3.67,5.695
	c0.208-0.865,0.77-1.311,1.658-1.312c0.744,0,12.135,0,12.878,0c0.065,0,0.132,0,0.215,0"/>
<path fill="none" stroke="#000000" stroke-width="1.5" stroke-miterlimit="10" d="M7.107,9.475c0.768,0,1.543,0,2.328,0"/>
<path fill="none" stroke="#000000" stroke-width="1.5" stroke-miterlimit="10" d="M11.904,9.473c0.777,0,1.546,0,2.326,0"/>
<path fill="none" stroke="#000000" stroke-width="1.5" stroke-miterlimit="10" d="M16.757,9.475c0.771,0,1.544,0,2.326,0"/>
<path fill="none" stroke="#41C363" stroke-width="1.5" stroke-miterlimit="10" d="M7.773,6.072c0-0.823,0-2.649,0-3.508"/>
<path fill="none" stroke="#000000" stroke-width="1.5" stroke-miterlimit="10" d="M7.107,13.673c0.768,0,1.543,0,2.328,0"/>
<path fill="none" stroke="#000000" stroke-width="1.5" stroke-miterlimit="10" d="M11.904,13.67c0.777,0,1.546,0,2.326,0"/>
<path fill="none" stroke="#000000" stroke-width="1.5" stroke-miterlimit="10" d="M16.757,13.673c0.771,0,1.544,0,2.326,0"/>
<path fill="none" stroke="#000000" stroke-width="1.5" stroke-miterlimit="10" d="M7.107,17.884c0.768,0,1.543,0,2.328,0"/>
<path fill="none" stroke="#41C363" stroke-width="1.5" stroke-miterlimit="10" d="M11.904,17.883c0.777,0,1.546,0,2.326,0"/>
<path fill="none" stroke="#41C363" stroke-width="1.5" stroke-miterlimit="10" d="M16.757,17.884c0.771,0,1.544,0,2.326,0"/>
<path fill="none" stroke="#000000" stroke-width="1.5" stroke-miterlimit="10" d="M18.421,6.072c0-0.823,0-2.649,0-3.508"/>
<path fill="none" stroke="#000000" stroke-width="1.5" stroke-miterlimit="10" d="M13.173,6.072c0-0.823,0-2.649,0-3.508"/>
<path fill="none" stroke="#41C363" stroke-width="1.5" stroke-miterlimit="10" d="M3.643,19.76c0-4.789,0-8.734,0-13.523
	c0.01-0.015,0.023-0.524,0.028-0.541C3.878,4.83,4.439,4.384,5.328,4.383c0.744,0,6.352,0,7.094,0"/>
</svg>
