<?xml version="1.0" encoding="UTF-8"?>
<!-- Generator: Adobe Illustrator 16.0.3, SVG Export Plug-In . SVG Version: 6.00 Build 0)  -->
<!DOCTYPE svg PUBLIC "-//W3C//DTD SVG 1.1//EN" "http://www.w3.org/Graphics/SVG/1.1/DTD/svg11.dtd">
<svg version="1.1" id="Layer_1" xmlns="http://www.w3.org/2000/svg" xmlns:xlink="http://www.w3.org/1999/xlink" x="0px" y="0px" width="28px" height="28px" viewBox="0 0 28 28" enable-background="new 0 0 28 28" xml:space="preserve">
<circle fill="none" stroke="#000000" stroke-width="1.5" stroke-miterlimit="10" cx="12.705" cy="24.488" r="1.674"/>
<circle fill="none" stroke="#000000" stroke-width="1.5" stroke-miterlimit="10" cx="9.056" cy="3.527" r="1.597"/>
<circle fill="none" stroke="#000000" stroke-width="1.5" stroke-miterlimit="10" cx="17.783" cy="5.123" r="1.118"/>
<path fill="none" stroke="#41C363" stroke-width="1.5" stroke-miterlimit="10" d="M12.157,7.369c0-0.881,0.715-1.597,1.597-1.597  s1.598,0.714,1.598,1.598"/>
<g>
	<path fill="none" stroke="#000000" stroke-width="1.5" stroke-miterlimit="10" d="M22.766,8.494   c-0.144-0.326-0.39-0.489-0.74-0.489H5.975c-0.351,0-0.598,0.163-0.74,0.489C5.093,8.837,5.151,9.13,5.411,9.372l6.182,6.183v5.094   c0,0.219,0.079,0.406,0.238,0.564l3.21,3.21c0.15,0.158,0.338,0.238,0.563,0.238c0.103,0,0.205-0.021,0.313-0.063   c0.326-0.142,0.49-0.389,0.49-0.74v-8.303l6.182-6.183C22.85,9.13,22.907,8.837,22.766,8.494z"/>
</g>
<g>
	<path fill="none" stroke="#41C363" stroke-width="1.5" stroke-miterlimit="10" d="M16.408,22.768v-6.684"/>
</g>
</svg>