<?xml version="1.0" encoding="utf-8"?>
<!-- Generator: Adobe Illustrator 16.0.3, SVG Export Plug-In . SVG Version: 6.00 Build 0)  -->
<!DOCTYPE svg PUBLIC "-//W3C//DTD SVG 1.1//EN" "http://www.w3.org/Graphics/SVG/1.1/DTD/svg11.dtd">
<svg version="1.1" id="Layer_1" xmlns="http://www.w3.org/2000/svg" xmlns:xlink="http://www.w3.org/1999/xlink" x="0px" y="0px"
	 width="124.304px" height="48.453px" viewBox="0 0 124.304 48.453" enable-background="new 0 0 124.304 48.453"
	 xml:space="preserve">
<g>
	<rect x="92.803" y="3.726" fill="#FFFFFF" width="22" height="25"/>
	<path fill="none" stroke="#52BA64" stroke-width="1.5" stroke-miterlimit="10" d="M98.133,10.531c0,0,2.835,1.982,7.387,0.277
		c4.553-1.707,6.212-1.383,8.424-0.277c2.213,1.105,4.379,3.596,9.357,1.799"/>
	<path fill="none" stroke="#52BA64" stroke-width="1.5" stroke-miterlimit="10" d="M86.404,17.552c0,0,2.827-2.049,6.454-1.801"/>
	<path fill="none" stroke="#FFFFFF" stroke-width="1.5" stroke-miterlimit="10" d="M86.945,21.345c0,0,2.589-1.156,5.914,0.049"/>
	<path fill="none" stroke="#3D3D3D" stroke-width="1.5" stroke-miterlimit="10" d="M99.288,15.552c0,0,2.108,0.588,5.358-0.484
		s4.598-0.932,5.912-0.586"/>
	<path fill="#51B963" d="M92.803,21.257c0,0,5.042,2.459,9.144,1.768c4.099-0.693,6.856-3.639,12.856,0.092v5.609h-22V21.257z"/>
	<path fill="none" stroke="#FFFFFF" stroke-width="1.5" stroke-miterlimit="10" d="M100.728,26.091c0,0,3.19-0.23,6.117-2.408"/>
	<circle fill="#52BA64" stroke="#FFFFFF" stroke-miterlimit="10" cx="95.075" cy="4.056" r="2.347"/>
	<circle fill="#FFFFFF" cx="91.759" cy="6.636" r="1.087"/>
	<g>
		<path fill="#FFFFFF" d="M1.147,16.352c0.5-0.462,1.08-0.808,1.739-1.038c0.659-0.23,1.318-0.346,1.977-0.346
			c0.685,0,1.275,0.086,1.769,0.257s0.899,0.402,1.215,0.691c0.316,0.29,0.55,0.623,0.702,0.998
			c0.151,0.376,0.227,0.769,0.227,1.177v4.783c0,0.33,0.006,0.633,0.02,0.909c0.013,0.277,0.033,0.541,0.059,0.791H7.274
			c-0.04-0.475-0.059-0.949-0.059-1.423h-0.04c-0.396,0.605-0.863,1.034-1.403,1.284c-0.541,0.25-1.167,0.376-1.878,0.376
			c-0.435,0-0.85-0.061-1.246-0.178c-0.395-0.119-0.741-0.297-1.038-0.534s-0.531-0.53-0.702-0.88
			c-0.171-0.349-0.257-0.754-0.257-1.215c0-0.606,0.135-1.114,0.405-1.522c0.27-0.408,0.639-0.741,1.107-0.998
			c0.467-0.257,1.015-0.441,1.641-0.554c0.625-0.111,1.294-0.168,2.006-0.168h1.305v-0.396c0-0.237-0.046-0.475-0.139-0.712
			c-0.092-0.236-0.23-0.451-0.415-0.642c-0.185-0.191-0.415-0.343-0.692-0.455c-0.277-0.111-0.606-0.168-0.988-0.168
			c-0.343,0-0.643,0.033-0.899,0.099c-0.257,0.066-0.491,0.148-0.702,0.247c-0.211,0.099-0.402,0.215-0.573,0.346
			c-0.171,0.133-0.336,0.258-0.494,0.376L1.147,16.352z M6.167,20.067c-0.422,0-0.853,0.023-1.294,0.069
			c-0.442,0.046-0.844,0.135-1.206,0.267s-0.659,0.316-0.889,0.554c-0.231,0.237-0.346,0.54-0.346,0.909
			c0,0.54,0.181,0.929,0.543,1.166s0.854,0.356,1.473,0.356c0.488,0,0.903-0.083,1.246-0.248c0.342-0.164,0.619-0.378,0.83-0.642
			c0.21-0.264,0.362-0.557,0.455-0.88s0.139-0.643,0.139-0.959v-0.593H6.167z"/>
		<path fill="#FFFFFF" d="M10.694,11.844c0-0.355,0.128-0.662,0.385-0.919c0.257-0.257,0.563-0.385,0.919-0.385
			s0.662,0.128,0.919,0.385c0.257,0.257,0.386,0.563,0.386,0.919c0,0.356-0.128,0.663-0.386,0.92
			c-0.257,0.257-0.563,0.385-0.919,0.385s-0.662-0.128-0.919-0.385C10.823,12.507,10.694,12.2,10.694,11.844z M11.109,15.205h1.779
			v9.369h-1.779V15.205z"/>
		<path fill="#FFFFFF" d="M15.319,15.205h1.779v1.442h0.04c0.119-0.25,0.277-0.478,0.475-0.682s0.418-0.379,0.662-0.524
			c0.244-0.145,0.511-0.26,0.801-0.346c0.29-0.085,0.58-0.128,0.87-0.128c0.29,0,0.553,0.039,0.791,0.118l-0.079,1.918
			c-0.145-0.04-0.29-0.073-0.435-0.1c-0.146-0.026-0.29-0.039-0.435-0.039c-0.87,0-1.535,0.244-1.997,0.731
			s-0.692,1.245-0.692,2.273v4.704h-1.779V15.205z"/>
		<path fill="#FFFFFF" d="M36.727,29.082h-1.779V23.23h-0.04c-0.316,0.487-0.771,0.873-1.364,1.156
			c-0.593,0.283-1.226,0.425-1.897,0.425c-0.725,0-1.38-0.126-1.967-0.376s-1.087-0.596-1.502-1.037s-0.734-0.962-0.958-1.562
			s-0.336-1.249-0.336-1.947c0-0.686,0.112-1.328,0.336-1.928s0.543-1.123,0.958-1.571s0.916-0.797,1.502-1.048
			c0.586-0.25,1.242-0.375,1.967-0.375c0.632,0,1.249,0.138,1.848,0.415c0.6,0.276,1.071,0.665,1.414,1.166h0.04v-1.344h1.779
			V29.082z M31.864,16.628c-0.474,0-0.903,0.082-1.285,0.247c-0.382,0.165-0.705,0.389-0.969,0.672s-0.468,0.626-0.613,1.028
			c-0.145,0.401-0.217,0.84-0.217,1.314s0.072,0.912,0.217,1.314s0.349,0.744,0.613,1.027c0.264,0.284,0.586,0.508,0.969,0.673
			c0.382,0.164,0.811,0.247,1.285,0.247c0.475,0,0.903-0.083,1.285-0.247c0.382-0.165,0.705-0.389,0.968-0.673
			c0.264-0.283,0.468-0.625,0.613-1.027s0.218-0.84,0.218-1.314s-0.073-0.913-0.218-1.314c-0.145-0.402-0.349-0.745-0.613-1.028
			s-0.586-0.507-0.968-0.672C32.767,16.71,32.339,16.628,31.864,16.628z"/>
		<path fill="#FFFFFF" d="M47.322,24.574h-1.779v-1.443h-0.04c-0.224,0.501-0.613,0.906-1.166,1.216
			c-0.554,0.31-1.193,0.465-1.917,0.465c-0.461,0-0.896-0.07-1.305-0.208c-0.409-0.138-0.768-0.353-1.077-0.642
			c-0.31-0.29-0.557-0.663-0.741-1.117c-0.185-0.455-0.277-0.991-0.277-1.611v-6.028h1.779v5.534c0,0.435,0.06,0.808,0.178,1.117
			c0.118,0.31,0.276,0.561,0.474,0.751c0.198,0.191,0.425,0.329,0.682,0.415s0.524,0.129,0.8,0.129c0.369,0,0.712-0.06,1.028-0.179
			c0.316-0.118,0.593-0.306,0.831-0.563c0.237-0.258,0.421-0.584,0.553-0.979c0.132-0.396,0.198-0.863,0.198-1.404v-4.822h1.779
			V24.574z"/>
		<path fill="#FFFFFF" d="M49.654,16.352c0.5-0.462,1.08-0.808,1.739-1.038c0.659-0.23,1.318-0.346,1.977-0.346
			c0.685,0,1.275,0.086,1.769,0.257s0.899,0.402,1.215,0.691c0.316,0.29,0.55,0.623,0.702,0.998
			c0.151,0.376,0.227,0.769,0.227,1.177v4.783c0,0.33,0.006,0.633,0.02,0.909c0.013,0.277,0.033,0.541,0.059,0.791h-1.582
			c-0.04-0.475-0.059-0.949-0.059-1.423h-0.04c-0.396,0.605-0.863,1.034-1.403,1.284c-0.541,0.25-1.167,0.376-1.878,0.376
			c-0.435,0-0.85-0.061-1.246-0.178c-0.395-0.119-0.741-0.297-1.038-0.534s-0.531-0.53-0.702-0.88
			c-0.171-0.349-0.257-0.754-0.257-1.215c0-0.606,0.135-1.114,0.405-1.522c0.27-0.408,0.639-0.741,1.107-0.998
			c0.467-0.257,1.015-0.441,1.641-0.554c0.625-0.111,1.294-0.168,2.006-0.168h1.305v-0.396c0-0.237-0.046-0.475-0.139-0.712
			c-0.092-0.236-0.23-0.451-0.415-0.642c-0.185-0.191-0.415-0.343-0.692-0.455c-0.277-0.111-0.606-0.168-0.988-0.168
			c-0.343,0-0.643,0.033-0.899,0.099c-0.257,0.066-0.491,0.148-0.702,0.247c-0.211,0.099-0.402,0.215-0.573,0.346
			c-0.171,0.133-0.336,0.258-0.494,0.376L49.654,16.352z M54.675,20.067c-0.422,0-0.853,0.023-1.294,0.069
			c-0.442,0.046-0.844,0.135-1.206,0.267s-0.659,0.316-0.889,0.554c-0.231,0.237-0.346,0.54-0.346,0.909
			c0,0.54,0.181,0.929,0.543,1.166s0.854,0.356,1.473,0.356c0.488,0,0.903-0.083,1.246-0.248c0.342-0.164,0.619-0.378,0.83-0.642
			c0.21-0.264,0.362-0.557,0.455-0.88s0.139-0.643,0.139-0.959v-0.593H54.675z"/>
		<path fill="#FFFFFF" d="M59.616,9.63h1.779v14.944h-1.779V9.63z"/>
		<path fill="#FFFFFF" d="M63.55,11.844c0-0.355,0.128-0.662,0.385-0.919c0.257-0.257,0.563-0.385,0.919-0.385
			s0.662,0.128,0.919,0.385c0.257,0.257,0.386,0.563,0.386,0.919c0,0.356-0.128,0.663-0.386,0.92
			c-0.257,0.257-0.563,0.385-0.919,0.385s-0.662-0.128-0.919-0.385C63.678,12.507,63.55,12.2,63.55,11.844z M63.965,15.205h1.779
			v9.369h-1.779V15.205z"/>
		<path fill="#FFFFFF" d="M73.196,16.746h-2.55v4.25c0,0.264,0.006,0.524,0.02,0.781c0.013,0.257,0.062,0.487,0.148,0.691
			c0.085,0.205,0.218,0.369,0.396,0.494c0.178,0.126,0.438,0.188,0.781,0.188c0.21,0,0.428-0.021,0.652-0.06
			c0.224-0.04,0.428-0.112,0.613-0.218v1.621c-0.211,0.118-0.484,0.201-0.82,0.247c-0.336,0.047-0.597,0.07-0.781,0.07
			c-0.686,0-1.216-0.096-1.591-0.288c-0.375-0.19-0.652-0.438-0.83-0.741c-0.178-0.303-0.284-0.643-0.316-1.018
			c-0.033-0.376-0.049-0.754-0.049-1.137v-4.883h-2.056v-1.541h2.056v-2.63h1.779v2.63h2.55V16.746z"/>
		<path fill="#FFFFFF" d="M73.987,15.205h2.056l2.774,7.313h0.04l2.661-7.313h1.897l-4.448,11.386
			c-0.157,0.408-0.322,0.779-0.492,1.115s-0.374,0.623-0.61,0.861c-0.236,0.236-0.521,0.42-0.856,0.553
			c-0.335,0.131-0.745,0.197-1.23,0.197c-0.262,0-0.528-0.016-0.797-0.049s-0.528-0.102-0.777-0.207l0.216-1.621
			c0.354,0.145,0.707,0.217,1.061,0.217c0.275,0,0.507-0.037,0.697-0.109c0.189-0.072,0.353-0.178,0.491-0.316
			c0.138-0.137,0.252-0.299,0.344-0.482c0.092-0.186,0.184-0.396,0.275-0.633l0.576-1.483L73.987,15.205z"/>
		<path fill="#FFFFFF" d="M1.107,33.175h1.66v1.461h0.04c0.04-0.131,0.142-0.295,0.307-0.494c0.165-0.197,0.375-0.385,0.632-0.563
			c0.257-0.178,0.56-0.33,0.909-0.455s0.735-0.188,1.157-0.188c0.698,0,1.285,0.145,1.759,0.436
			c0.474,0.289,0.863,0.725,1.166,1.305c0.303-0.58,0.731-1.016,1.285-1.305c0.554-0.291,1.114-0.436,1.68-0.436
			c0.725,0,1.318,0.119,1.779,0.355c0.461,0.238,0.823,0.551,1.087,0.939s0.445,0.83,0.544,1.324
			c0.099,0.494,0.148,1.006,0.148,1.531v5.457h-1.779v-5.219c0-0.355-0.023-0.699-0.069-1.027c-0.046-0.33-0.142-0.619-0.287-0.871
			c-0.145-0.25-0.349-0.451-0.613-0.602c-0.264-0.152-0.613-0.229-1.047-0.229c-0.857,0-1.47,0.264-1.838,0.791
			c-0.369,0.527-0.554,1.205-0.554,2.035v5.121H7.294v-4.902c0-0.447-0.023-0.857-0.069-1.227c-0.046-0.367-0.138-0.688-0.277-0.959
			c-0.138-0.27-0.336-0.48-0.593-0.631c-0.257-0.152-0.603-0.229-1.038-0.229c-0.316,0-0.623,0.063-0.919,0.188
			c-0.296,0.127-0.557,0.314-0.781,0.564s-0.402,0.57-0.534,0.959s-0.198,0.846-0.198,1.373v4.863H1.107V33.175z"/>
		<path fill="#FFFFFF" d="M17.098,37.859c0-0.686,0.128-1.324,0.385-1.918c0.257-0.592,0.609-1.113,1.058-1.561
			c0.448-0.447,0.975-0.801,1.582-1.059c0.606-0.256,1.258-0.385,1.957-0.385c0.699,0,1.351,0.129,1.957,0.385
			c0.606,0.258,1.133,0.611,1.582,1.059c0.448,0.447,0.8,0.969,1.058,1.561c0.257,0.594,0.385,1.232,0.385,1.918
			s-0.128,1.328-0.385,1.928c-0.257,0.6-0.61,1.119-1.058,1.561c-0.448,0.443-0.976,0.791-1.582,1.049
			c-0.606,0.256-1.258,0.385-1.957,0.385c-0.698,0-1.351-0.129-1.957-0.385c-0.606-0.258-1.134-0.605-1.582-1.049
			c-0.448-0.441-0.801-0.961-1.058-1.561S17.098,38.544,17.098,37.859z M18.996,37.859c0,0.475,0.072,0.912,0.217,1.314
			s0.349,0.744,0.613,1.027c0.264,0.285,0.586,0.508,0.969,0.674c0.382,0.164,0.811,0.246,1.285,0.246
			c0.475,0,0.903-0.082,1.285-0.246c0.382-0.166,0.705-0.389,0.968-0.674c0.264-0.283,0.468-0.625,0.613-1.027
			s0.218-0.84,0.218-1.314s-0.073-0.912-0.218-1.314s-0.349-0.744-0.613-1.027s-0.586-0.508-0.968-0.672
			c-0.382-0.166-0.811-0.248-1.285-0.248c-0.474,0-0.903,0.082-1.285,0.248c-0.382,0.164-0.705,0.389-0.969,0.672
			s-0.468,0.625-0.613,1.027S18.996,37.384,18.996,37.859z"/>
		<path fill="#FFFFFF" d="M28.899,33.175h1.779v1.441h0.04c0.224-0.5,0.613-0.904,1.167-1.215c0.553-0.311,1.192-0.465,1.917-0.465
			c0.448,0,0.879,0.068,1.294,0.207s0.777,0.354,1.087,0.643c0.309,0.291,0.556,0.662,0.741,1.117
			c0.184,0.455,0.277,0.992,0.277,1.611v6.029h-1.779v-5.535c0-0.436-0.059-0.807-0.178-1.117c-0.119-0.309-0.277-0.561-0.475-0.75
			c-0.198-0.191-0.425-0.33-0.682-0.416c-0.257-0.086-0.524-0.129-0.801-0.129c-0.369,0-0.711,0.061-1.028,0.178
			c-0.316,0.119-0.593,0.307-0.83,0.564c-0.237,0.256-0.422,0.582-0.554,0.979c-0.132,0.395-0.198,0.863-0.198,1.402v4.824h-1.779
			V33.175z"/>
		<path fill="#FFFFFF" d="M39.218,29.814c0-0.355,0.128-0.662,0.385-0.92c0.257-0.256,0.563-0.385,0.919-0.385
			s0.662,0.129,0.919,0.385c0.257,0.258,0.386,0.564,0.386,0.92s-0.128,0.662-0.386,0.92c-0.257,0.256-0.563,0.385-0.919,0.385
			s-0.662-0.129-0.919-0.385C39.346,30.476,39.218,30.169,39.218,29.814z M39.633,33.175h1.779v9.369h-1.779V33.175z"/>
		<path fill="#FFFFFF" d="M48.863,34.716h-2.55v4.25c0,0.264,0.006,0.523,0.02,0.781c0.013,0.256,0.062,0.486,0.148,0.691
			c0.085,0.205,0.218,0.369,0.396,0.494s0.438,0.188,0.781,0.188c0.21,0,0.428-0.02,0.652-0.059
			c0.224-0.041,0.428-0.113,0.613-0.219v1.621c-0.211,0.119-0.484,0.201-0.82,0.248c-0.336,0.045-0.597,0.068-0.781,0.068
			c-0.686,0-1.216-0.096-1.591-0.287c-0.375-0.189-0.652-0.438-0.83-0.74c-0.178-0.303-0.284-0.643-0.316-1.018
			c-0.033-0.377-0.049-0.754-0.049-1.137v-4.883h-2.056v-1.541h2.056v-2.631h1.779v2.631h2.55V34.716z"/>
		<path fill="#FFFFFF" d="M50.306,37.859c0-0.686,0.128-1.324,0.385-1.918c0.257-0.592,0.609-1.113,1.058-1.561
			c0.448-0.447,0.975-0.801,1.582-1.059c0.606-0.256,1.258-0.385,1.957-0.385c0.699,0,1.351,0.129,1.957,0.385
			c0.606,0.258,1.133,0.611,1.582,1.059c0.448,0.447,0.8,0.969,1.058,1.561c0.257,0.594,0.385,1.232,0.385,1.918
			s-0.128,1.328-0.385,1.928c-0.257,0.6-0.61,1.119-1.058,1.561c-0.448,0.443-0.976,0.791-1.582,1.049
			c-0.606,0.256-1.258,0.385-1.957,0.385c-0.698,0-1.351-0.129-1.957-0.385c-0.606-0.258-1.134-0.605-1.582-1.049
			c-0.448-0.441-0.801-0.961-1.058-1.561S50.306,38.544,50.306,37.859z M52.204,37.859c0,0.475,0.072,0.912,0.217,1.314
			s0.349,0.744,0.613,1.027c0.264,0.285,0.586,0.508,0.969,0.674c0.382,0.164,0.811,0.246,1.285,0.246
			c0.475,0,0.903-0.082,1.285-0.246c0.382-0.166,0.705-0.389,0.968-0.674c0.264-0.283,0.468-0.625,0.613-1.027
			s0.218-0.84,0.218-1.314s-0.073-0.912-0.218-1.314s-0.349-0.744-0.613-1.027s-0.586-0.508-0.968-0.672
			c-0.382-0.166-0.811-0.248-1.285-0.248c-0.474,0-0.903,0.082-1.285,0.248c-0.382,0.164-0.705,0.389-0.969,0.672
			s-0.468,0.625-0.613,1.027S52.204,37.384,52.204,37.859z"/>
		<path fill="#FFFFFF" d="M62.107,33.175h1.779v1.441h0.04c0.119-0.25,0.277-0.477,0.475-0.682c0.198-0.203,0.418-0.379,0.662-0.523
			c0.244-0.145,0.511-0.26,0.801-0.346c0.29-0.086,0.58-0.129,0.87-0.129c0.29,0,0.553,0.039,0.791,0.119l-0.079,1.918
			c-0.145-0.041-0.29-0.074-0.435-0.1c-0.146-0.027-0.29-0.039-0.435-0.039c-0.87,0-1.535,0.244-1.997,0.73
			c-0.461,0.488-0.692,1.246-0.692,2.273v4.705h-1.779V33.175z"/>
		<path fill="#FFFFFF" d="M68.749,29.814c0-0.355,0.128-0.662,0.385-0.92c0.257-0.256,0.563-0.385,0.919-0.385
			s0.662,0.129,0.919,0.385c0.257,0.258,0.386,0.564,0.386,0.92s-0.128,0.662-0.386,0.92c-0.257,0.256-0.563,0.385-0.919,0.385
			s-0.662-0.129-0.919-0.385C68.877,30.476,68.749,30.169,68.749,29.814z M69.164,33.175h1.779v9.369h-1.779V33.175z"/>
		<path fill="#FFFFFF" d="M73.374,33.175h1.779v1.441h0.04c0.224-0.5,0.613-0.904,1.167-1.215c0.553-0.311,1.192-0.465,1.917-0.465
			c0.448,0,0.879,0.068,1.294,0.207s0.777,0.354,1.087,0.643c0.309,0.291,0.556,0.662,0.741,1.117
			c0.184,0.455,0.277,0.992,0.277,1.611v6.029h-1.779v-5.535c0-0.436-0.059-0.807-0.178-1.117c-0.119-0.309-0.277-0.561-0.475-0.75
			c-0.198-0.191-0.425-0.33-0.682-0.416c-0.257-0.086-0.524-0.129-0.801-0.129c-0.369,0-0.711,0.061-1.028,0.178
			c-0.316,0.119-0.593,0.307-0.83,0.564c-0.237,0.256-0.422,0.582-0.554,0.979c-0.132,0.395-0.198,0.863-0.198,1.402v4.824h-1.779
			V33.175z"/>
		<path fill="#FFFFFF" d="M93.358,42.464c0,0.713-0.122,1.361-0.365,1.947c-0.244,0.586-0.59,1.094-1.038,1.521
			c-0.448,0.43-0.988,0.762-1.621,1c-0.632,0.236-1.331,0.355-2.095,0.355c-0.896,0-1.717-0.125-2.461-0.377
			c-0.745-0.25-1.453-0.684-2.125-1.305l1.206-1.502c0.461,0.502,0.962,0.881,1.502,1.137c0.541,0.258,1.153,0.387,1.839,0.387
			c0.659,0,1.206-0.096,1.641-0.287s0.78-0.439,1.038-0.742c0.257-0.303,0.438-0.648,0.543-1.037s0.158-0.781,0.158-1.176v-1.385
			H91.52c-0.344,0.568-0.808,0.986-1.395,1.256c-0.586,0.27-1.202,0.404-1.848,0.404c-0.686,0-1.321-0.121-1.908-0.365
			c-0.586-0.244-1.09-0.58-1.512-1.008s-0.751-0.936-0.988-1.521c-0.237-0.586-0.355-1.223-0.355-1.908s0.112-1.328,0.336-1.928
			c0.225-0.6,0.543-1.123,0.959-1.57c0.414-0.449,0.916-0.797,1.502-1.049c0.586-0.25,1.242-0.375,1.967-0.375
			c0.633,0,1.248,0.139,1.848,0.416c0.6,0.275,1.071,0.664,1.414,1.166h0.039v-1.344h1.779V42.464z M88.495,34.597
			c-0.474,0-0.902,0.082-1.284,0.248c-0.382,0.164-0.705,0.389-0.969,0.672s-0.468,0.625-0.612,1.027
			c-0.146,0.402-0.218,0.84-0.218,1.314c0,0.949,0.276,1.711,0.83,2.283c0.554,0.574,1.305,0.859,2.253,0.859
			c0.949,0,1.701-0.285,2.254-0.859c0.554-0.572,0.83-1.334,0.83-2.283c0-0.475-0.072-0.912-0.217-1.314
			c-0.146-0.402-0.35-0.744-0.613-1.027s-0.586-0.508-0.969-0.672C89.398,34.679,88.969,34.597,88.495,34.597z"/>
	</g>
</g>
</svg>
