<?xml version="1.0" encoding="utf-8"?>
<!-- Generator: Adobe Illustrator 16.0.3, SVG Export Plug-In . SVG Version: 6.00 Build 0)  -->
<!DOCTYPE svg PUBLIC "-//W3C//DTD SVG 1.1//EN" "http://www.w3.org/Graphics/SVG/1.1/DTD/svg11.dtd">
<svg version="1.1" id="Admin" xmlns="http://www.w3.org/2000/svg" xmlns:xlink="http://www.w3.org/1999/xlink" x="0px" y="0px"
	 width="151.896px" height="46.969px" viewBox="0 0 151.896 46.969" enable-background="new 0 0 151.896 46.969"
	 xml:space="preserve">
<g>
	<path d="M4.72,17.497c1.227,0,2.2,0.514,2.92,1.54l-1.14,0.98c-0.333-0.36-0.637-0.617-0.91-0.771s-0.583-0.229-0.93-0.229
		c-0.347,0-0.637,0.109-0.87,0.33c-0.233,0.22-0.35,0.536-0.35,0.949c0,0.308,0.117,0.558,0.35,0.75
		c0.233,0.194,0.523,0.374,0.87,0.54c0.346,0.167,0.72,0.33,1.12,0.49c0.4,0.16,0.773,0.351,1.12,0.57s0.637,0.493,0.87,0.82
		c0.233,0.326,0.35,0.736,0.35,1.229c0,1.014-0.3,1.8-0.9,2.36c-0.6,0.56-1.414,0.84-2.44,0.84c-0.52,0-0.983-0.077-1.39-0.23
		c-0.407-0.152-0.764-0.359-1.07-0.62c-0.307-0.26-0.567-0.55-0.78-0.869c-0.213-0.32-0.387-0.653-0.52-1l1.42-0.78
		c0.227,0.547,0.533,1.014,0.92,1.399c0.387,0.388,0.86,0.58,1.42,0.58c0.507,0,0.903-0.13,1.19-0.39
		c0.286-0.26,0.43-0.656,0.43-1.19c0-0.306-0.113-0.556-0.34-0.75c-0.227-0.192-0.514-0.366-0.86-0.52
		c-0.347-0.153-0.72-0.307-1.12-0.46s-0.773-0.347-1.12-0.58s-0.633-0.523-0.86-0.87c-0.227-0.347-0.34-0.793-0.34-1.34
		c0-0.387,0.07-0.75,0.21-1.09c0.14-0.34,0.336-0.634,0.59-0.88c0.253-0.247,0.563-0.443,0.93-0.59
		C3.856,17.57,4.266,17.497,4.72,17.497z"/>
	<path d="M24.7,27.737h-1.68v-6.74c0-1.319-0.54-1.979-1.62-1.979c-0.36,0-0.704,0.1-1.03,0.3s-0.613,0.497-0.86,0.89
		c-0.247,0.394-0.44,0.874-0.58,1.44s-0.21,1.217-0.21,1.95v4.14h-1.68v-6.74c0-1.319-0.54-1.979-1.62-1.979
		c-0.36,0-0.704,0.1-1.03,0.3s-0.613,0.497-0.86,0.89c-0.247,0.394-0.44,0.874-0.58,1.44s-0.21,1.217-0.21,1.95v4.14h-1.68v-10.08
		h1.68v1.86c0.32-0.641,0.747-1.137,1.28-1.49s1.153-0.53,1.86-0.53c0.707,0,1.293,0.184,1.76,0.55
		c0.467,0.367,0.78,0.884,0.94,1.551c0.347-0.667,0.8-1.184,1.36-1.551c0.56-0.366,1.2-0.55,1.92-0.55c0.92,0,1.623,0.28,2.11,0.84
		c0.486,0.561,0.73,1.327,0.73,2.301V27.737z"/>
	<path d="M35.459,27.737H34.14l-0.28-1.42c-0.32,0.467-0.737,0.847-1.25,1.14s-1.15,0.44-1.91,0.44c-0.427,0-0.827-0.057-1.2-0.17
		c-0.374-0.113-0.704-0.297-0.99-0.55c-0.287-0.254-0.513-0.57-0.68-0.95c-0.167-0.38-0.25-0.844-0.25-1.391
		c0-0.533,0.106-1.006,0.32-1.42c0.213-0.413,0.52-0.76,0.92-1.04c0.4-0.279,0.88-0.489,1.44-0.63c0.56-0.14,1.187-0.21,1.88-0.21
		h1.64v-0.439c0-0.773-0.213-1.313-0.64-1.62c-0.427-0.307-0.947-0.46-1.56-0.46c-0.52,0-0.974,0.137-1.36,0.41
		s-0.633,0.663-0.74,1.17L28,20.257c0.146-0.853,0.54-1.526,1.18-2.02c0.64-0.493,1.44-0.74,2.4-0.74c0.56,0,1.077,0.073,1.55,0.221
		c0.473,0.146,0.883,0.373,1.23,0.68c0.346,0.307,0.617,0.7,0.811,1.18c0.193,0.48,0.289,1.054,0.289,1.72V27.737z M29.299,24.837
		c0,0.48,0.143,0.857,0.43,1.131c0.287,0.273,0.697,0.409,1.23,0.409c0.32,0,0.65-0.053,0.99-0.159
		c0.34-0.107,0.643-0.28,0.91-0.521s0.487-0.557,0.66-0.95c0.173-0.393,0.26-0.876,0.26-1.45v-0.239h-1.8
		c-0.867,0-1.53,0.153-1.99,0.46C29.529,23.824,29.299,24.265,29.299,24.837z"/>
	<path d="M44.339,19.297c-0.373-0.187-0.767-0.279-1.18-0.279c-0.347,0-0.687,0.1-1.02,0.3c-0.334,0.2-0.634,0.507-0.9,0.92
		s-0.483,0.927-0.65,1.54c-0.166,0.613-0.25,1.327-0.25,2.14v3.82h-1.68v-10.08h1.68v1.72c0.147-0.279,0.334-0.536,0.561-0.77
		s0.47-0.43,0.729-0.59c0.261-0.16,0.533-0.287,0.82-0.38c0.287-0.094,0.57-0.141,0.851-0.141c0.279,0,0.543,0.03,0.789,0.09
		c0.247,0.061,0.443,0.131,0.591,0.21L44.339,19.297z"/>
	<path d="M45.579,17.657h1.74v-3.02l1.68-1.061v4.08h2.64v1.521h-2.64v5.54c0,0.547,0.116,0.96,0.35,1.239
		c0.233,0.28,0.563,0.42,0.99,0.42c0.227,0,0.427-0.022,0.601-0.069c0.173-0.047,0.353-0.13,0.54-0.25l0.399,1.46
		c-0.24,0.146-0.5,0.246-0.78,0.3c-0.279,0.053-0.566,0.08-0.859,0.08c-0.854,0-1.554-0.267-2.101-0.8s-0.819-1.373-0.819-2.521
		v-5.399h-1.74V17.657z"/>
	<path d="M61.479,13.577v14.16h-1.681v-14.16H61.479z"/>
	<path d="M64.599,14.857c0-0.36,0.119-0.663,0.359-0.91c0.24-0.246,0.54-0.37,0.9-0.37c0.359,0,0.66,0.124,0.899,0.37
		c0.24,0.247,0.36,0.55,0.36,0.91c0,0.347-0.12,0.64-0.36,0.88c-0.239,0.24-0.54,0.36-0.899,0.36c-0.36,0-0.66-0.12-0.9-0.36
		S64.599,15.204,64.599,14.857z M66.698,17.657v10.08h-1.68v-10.08H66.698z"/>
	<path d="M70.358,20.897c0-0.521,0.09-0.99,0.271-1.41c0.18-0.42,0.43-0.776,0.75-1.07c0.319-0.293,0.692-0.52,1.12-0.68
		c0.426-0.16,0.886-0.24,1.38-0.24c0.333,0,0.652,0.04,0.96,0.12c0.307,0.08,0.593,0.193,0.859,0.34l1.801-1.02l0.76,1.38
		l-1.36,0.76c0.333,0.521,0.5,1.127,0.5,1.82c0,0.52-0.09,0.99-0.27,1.41c-0.181,0.42-0.431,0.773-0.75,1.06
		c-0.32,0.287-0.693,0.507-1.12,0.66s-0.887,0.229-1.38,0.229c-0.667,0-1.247-0.119-1.74-0.359c-0.44,0.213-0.66,0.54-0.66,0.979
		c0,0.561,0.38,0.841,1.14,0.841h2.381c0.946,0,1.71,0.233,2.29,0.699c0.579,0.467,0.869,1.16,0.869,2.08
		c0,0.627-0.113,1.16-0.34,1.601c-0.227,0.439-0.537,0.8-0.93,1.08c-0.394,0.279-0.847,0.482-1.36,0.609
		c-0.513,0.127-1.057,0.19-1.63,0.19c-0.64,0-1.224-0.073-1.75-0.221c-0.526-0.146-0.977-0.363-1.35-0.649
		c-0.374-0.287-0.664-0.637-0.87-1.05c-0.207-0.414-0.311-0.88-0.311-1.4c0-0.467,0.091-0.877,0.271-1.229
		c0.18-0.354,0.403-0.644,0.67-0.87c-0.214-0.187-0.38-0.41-0.5-0.67c-0.12-0.261-0.18-0.57-0.18-0.931
		c0-0.427,0.109-0.796,0.33-1.109c0.22-0.313,0.517-0.563,0.89-0.75c-0.227-0.28-0.407-0.604-0.54-0.971
		C70.425,21.761,70.358,21.351,70.358,20.897z M72.698,27.157c-0.133,0-0.263-0.003-0.39-0.01s-0.243-0.017-0.35-0.03
		c-0.24,0.187-0.41,0.403-0.511,0.65c-0.1,0.246-0.149,0.522-0.149,0.83c0,0.56,0.217,1.017,0.649,1.37
		c0.434,0.353,1.083,0.529,1.95,0.529c0.88,0,1.523-0.177,1.93-0.529c0.407-0.354,0.61-0.79,0.61-1.311c0-0.56-0.16-0.95-0.479-1.17
		c-0.32-0.22-0.728-0.33-1.221-0.33H72.698z M71.999,20.897c0,0.64,0.187,1.12,0.56,1.439c0.373,0.32,0.813,0.48,1.32,0.48
		c0.506,0,0.946-0.16,1.319-0.48c0.373-0.319,0.561-0.8,0.561-1.439c0-0.641-0.188-1.127-0.561-1.46s-0.813-0.5-1.319-0.5
		c-0.507,0-0.947,0.167-1.32,0.5S71.999,20.257,71.999,20.897z"/>
	<path d="M88.679,27.737h-1.681v-6.66c0-0.693-0.149-1.21-0.45-1.55c-0.3-0.34-0.729-0.51-1.29-0.51c-0.373,0-0.739,0.1-1.1,0.3
		s-0.684,0.49-0.97,0.87c-0.287,0.38-0.521,0.847-0.7,1.399c-0.18,0.554-0.271,1.178-0.271,1.87v4.28h-1.68v-14.16h1.68v5.96
		c0.32-0.613,0.787-1.106,1.4-1.479s1.313-0.561,2.1-0.561c0.921,0,1.644,0.271,2.171,0.811c0.526,0.54,0.79,1.35,0.79,2.43V27.737z
		"/>
	<path d="M90.898,17.657h1.74v-3.02l1.68-1.061v4.08h2.64v1.521h-2.64v5.54c0,0.547,0.116,0.96,0.35,1.239
		c0.233,0.28,0.563,0.42,0.99,0.42c0.227,0,0.427-0.022,0.601-0.069c0.173-0.047,0.353-0.13,0.54-0.25l0.399,1.46
		c-0.24,0.146-0.5,0.246-0.78,0.3c-0.279,0.053-0.566,0.08-0.859,0.08c-0.854,0-1.554-0.267-2.101-0.8s-0.819-1.373-0.819-2.521
		v-5.399h-1.74V17.657z"/>
	<path d="M99.398,14.857c0-0.36,0.119-0.663,0.359-0.91c0.24-0.246,0.54-0.37,0.9-0.37c0.359,0,0.66,0.124,0.899,0.37
		c0.24,0.247,0.36,0.55,0.36,0.91c0,0.347-0.12,0.64-0.36,0.88c-0.239,0.24-0.54,0.36-0.899,0.36c-0.36,0-0.66-0.12-0.9-0.36
		S99.398,15.204,99.398,14.857z M101.498,17.657v10.08h-1.68v-10.08H101.498z"/>
	<path d="M113.178,27.737h-1.681v-6.66c0-0.693-0.149-1.21-0.449-1.55c-0.301-0.34-0.73-0.51-1.29-0.51
		c-0.374,0-0.733,0.104-1.08,0.31c-0.348,0.207-0.653,0.504-0.92,0.891c-0.268,0.387-0.48,0.859-0.641,1.42
		c-0.16,0.56-0.24,1.187-0.24,1.88v4.22h-1.68v-10.08h1.68v1.86c0.374-0.653,0.847-1.153,1.421-1.5
		c0.572-0.347,1.213-0.521,1.92-0.521c0.92,0,1.643,0.273,2.17,0.82c0.526,0.547,0.79,1.32,0.79,2.32V27.737z"/>
	<path d="M116.697,20.897c0-0.521,0.09-0.99,0.271-1.41c0.18-0.42,0.43-0.776,0.75-1.07c0.319-0.293,0.692-0.52,1.12-0.68
		c0.426-0.16,0.886-0.24,1.38-0.24c0.333,0,0.652,0.04,0.96,0.12c0.307,0.08,0.593,0.193,0.859,0.34l1.801-1.02l0.76,1.38
		l-1.36,0.76c0.333,0.521,0.5,1.127,0.5,1.82c0,0.52-0.09,0.99-0.27,1.41c-0.181,0.42-0.431,0.773-0.75,1.06
		c-0.32,0.287-0.693,0.507-1.12,0.66s-0.887,0.229-1.38,0.229c-0.667,0-1.247-0.119-1.74-0.359c-0.44,0.213-0.66,0.54-0.66,0.979
		c0,0.561,0.38,0.841,1.14,0.841h2.381c0.946,0,1.71,0.233,2.29,0.699c0.579,0.467,0.869,1.16,0.869,2.08
		c0,0.627-0.113,1.16-0.34,1.601c-0.227,0.439-0.537,0.8-0.93,1.08c-0.394,0.279-0.847,0.482-1.36,0.609
		c-0.513,0.127-1.057,0.19-1.63,0.19c-0.64,0-1.224-0.073-1.75-0.221c-0.526-0.146-0.977-0.363-1.35-0.649
		c-0.374-0.287-0.664-0.637-0.87-1.05c-0.207-0.414-0.311-0.88-0.311-1.4c0-0.467,0.091-0.877,0.271-1.229
		c0.18-0.354,0.403-0.644,0.67-0.87c-0.214-0.187-0.38-0.41-0.5-0.67c-0.12-0.261-0.18-0.57-0.18-0.931
		c0-0.427,0.109-0.796,0.33-1.109c0.22-0.313,0.517-0.563,0.89-0.75c-0.227-0.28-0.407-0.604-0.54-0.971
		C116.764,21.761,116.697,21.351,116.697,20.897z M119.037,27.157c-0.133,0-0.263-0.003-0.39-0.01s-0.243-0.017-0.35-0.03
		c-0.24,0.187-0.41,0.403-0.511,0.65c-0.1,0.246-0.149,0.522-0.149,0.83c0,0.56,0.217,1.017,0.649,1.37
		c0.434,0.353,1.083,0.529,1.95,0.529c0.88,0,1.523-0.177,1.93-0.529c0.407-0.354,0.61-0.79,0.61-1.311c0-0.56-0.16-0.95-0.479-1.17
		c-0.32-0.22-0.728-0.33-1.221-0.33H119.037z M118.338,20.897c0,0.64,0.187,1.12,0.56,1.439c0.373,0.32,0.813,0.48,1.32,0.48
		c0.506,0,0.946-0.16,1.319-0.48c0.373-0.319,0.561-0.8,0.561-1.439c0-0.641-0.188-1.127-0.561-1.46s-0.813-0.5-1.319-0.5
		c-0.507,0-0.947,0.167-1.32,0.5S118.338,20.257,118.338,20.897z"/>
	<path d="M4.72,36.497c1.227,0,2.2,0.514,2.92,1.54l-1.14,0.98c-0.333-0.36-0.637-0.617-0.91-0.771s-0.583-0.229-0.93-0.229
		c-0.347,0-0.637,0.109-0.87,0.33c-0.233,0.22-0.35,0.536-0.35,0.949c0,0.308,0.117,0.558,0.35,0.75
		c0.233,0.194,0.523,0.374,0.87,0.54c0.346,0.167,0.72,0.33,1.12,0.49c0.4,0.16,0.773,0.351,1.12,0.57s0.637,0.493,0.87,0.82
		c0.233,0.326,0.35,0.736,0.35,1.229c0,1.014-0.3,1.8-0.9,2.36c-0.6,0.56-1.414,0.84-2.44,0.84c-0.52,0-0.983-0.077-1.39-0.23
		c-0.407-0.152-0.764-0.359-1.07-0.62c-0.307-0.26-0.567-0.55-0.78-0.869c-0.213-0.32-0.387-0.653-0.52-1l1.42-0.78
		c0.227,0.547,0.533,1.014,0.92,1.399c0.387,0.388,0.86,0.58,1.42,0.58c0.507,0,0.903-0.13,1.19-0.39
		c0.286-0.26,0.43-0.656,0.43-1.19c0-0.306-0.113-0.556-0.34-0.75c-0.227-0.192-0.514-0.366-0.86-0.52
		c-0.347-0.153-0.72-0.307-1.12-0.46s-0.773-0.347-1.12-0.58s-0.633-0.523-0.86-0.87c-0.227-0.347-0.34-0.793-0.34-1.34
		c0-0.387,0.07-0.75,0.21-1.09c0.14-0.34,0.336-0.634,0.59-0.88c0.253-0.247,0.563-0.443,0.93-0.59
		C3.856,36.57,4.266,36.497,4.72,36.497z"/>
	<path d="M10.3,41.697c0-0.68,0.11-1.333,0.33-1.96c0.22-0.627,0.54-1.18,0.96-1.66c0.42-0.479,0.926-0.863,1.52-1.149
		c0.593-0.287,1.27-0.431,2.03-0.431c0.76,0,1.437,0.144,2.03,0.431c0.593,0.286,1.1,0.67,1.52,1.149
		c0.42,0.48,0.74,1.033,0.96,1.66c0.22,0.627,0.33,1.28,0.33,1.96s-0.11,1.333-0.33,1.96c-0.22,0.627-0.54,1.18-0.96,1.66
		c-0.42,0.479-0.927,0.863-1.52,1.15c-0.594,0.286-1.27,0.43-2.03,0.43c-0.76,0-1.437-0.144-2.03-0.43
		c-0.594-0.287-1.1-0.671-1.52-1.15c-0.42-0.48-0.74-1.033-0.96-1.66C10.41,43.03,10.3,42.377,10.3,41.697z M12.02,41.697
		c0,0.467,0.067,0.92,0.2,1.36c0.133,0.439,0.33,0.833,0.59,1.18c0.26,0.347,0.583,0.623,0.97,0.83s0.84,0.31,1.36,0.31
		s0.973-0.103,1.36-0.31s0.71-0.483,0.97-0.83s0.457-0.74,0.59-1.18c0.133-0.44,0.2-0.894,0.2-1.36s-0.067-0.92-0.2-1.36
		c-0.133-0.439-0.33-0.833-0.59-1.18s-0.583-0.623-0.97-0.83c-0.387-0.206-0.84-0.31-1.36-0.31s-0.973,0.104-1.36,0.31
		c-0.387,0.207-0.71,0.483-0.97,0.83c-0.26,0.347-0.457,0.74-0.59,1.18C12.086,40.777,12.02,41.23,12.02,41.697z"/>
	<path d="M24.54,32.577v14.16h-1.68v-14.16H24.54z"/>
	<path d="M27.939,36.657h1.68v6.66c0,0.693,0.15,1.21,0.45,1.55c0.3,0.34,0.73,0.51,1.29,0.51c0.373,0,0.733-0.103,1.08-0.31
		c0.346-0.207,0.653-0.503,0.92-0.89c0.267-0.387,0.48-0.857,0.64-1.41c0.16-0.554,0.239-1.184,0.239-1.891v-4.22h1.682v10.08
		h-1.682v-1.86c-0.373,0.653-0.846,1.153-1.419,1.5c-0.574,0.348-1.213,0.521-1.92,0.521c-0.92,0-1.644-0.273-2.17-0.82
		s-0.79-1.32-0.79-2.32V36.657z"/>
	<path d="M38.259,36.657h1.74v-3.02l1.68-1.061v4.08h2.64v1.521h-2.64v5.54c0,0.547,0.116,0.96,0.35,1.239
		c0.233,0.28,0.563,0.42,0.99,0.42c0.227,0,0.427-0.022,0.601-0.069c0.173-0.047,0.353-0.13,0.54-0.25l0.399,1.46
		c-0.24,0.146-0.5,0.246-0.78,0.3c-0.279,0.053-0.566,0.08-0.859,0.08c-0.854,0-1.554-0.267-2.101-0.8s-0.819-1.373-0.819-2.521
		v-5.399h-1.74V36.657z"/>
	<path d="M46.76,33.857c0-0.36,0.119-0.663,0.359-0.91c0.24-0.246,0.54-0.37,0.9-0.37c0.359,0,0.66,0.124,0.899,0.37
		c0.24,0.247,0.36,0.55,0.36,0.91c0,0.347-0.12,0.64-0.36,0.88c-0.239,0.24-0.54,0.36-0.899,0.36c-0.36,0-0.66-0.12-0.9-0.36
		S46.76,34.204,46.76,33.857z M48.859,36.657v10.08h-1.68v-10.08H48.859z"/>
	<path d="M51.799,41.697c0-0.68,0.11-1.333,0.33-1.96s0.54-1.18,0.96-1.66c0.42-0.479,0.927-0.863,1.52-1.149
		c0.594-0.287,1.271-0.431,2.03-0.431s1.437,0.144,2.03,0.431c0.593,0.286,1.1,0.67,1.52,1.149c0.42,0.48,0.74,1.033,0.96,1.66
		c0.221,0.627,0.33,1.28,0.33,1.96s-0.109,1.333-0.33,1.96c-0.22,0.627-0.54,1.18-0.96,1.66c-0.42,0.479-0.927,0.863-1.52,1.15
		c-0.594,0.286-1.271,0.43-2.03,0.43s-1.437-0.144-2.03-0.43c-0.593-0.287-1.1-0.671-1.52-1.15c-0.42-0.48-0.74-1.033-0.96-1.66
		S51.799,42.377,51.799,41.697z M53.519,41.697c0,0.467,0.066,0.92,0.2,1.36c0.133,0.439,0.33,0.833,0.59,1.18
		s0.583,0.623,0.97,0.83s0.841,0.31,1.36,0.31c0.521,0,0.974-0.103,1.36-0.31s0.71-0.483,0.97-0.83s0.457-0.74,0.59-1.18
		c0.133-0.44,0.2-0.894,0.2-1.36s-0.067-0.92-0.2-1.36c-0.133-0.439-0.33-0.833-0.59-1.18s-0.583-0.623-0.97-0.83
		c-0.387-0.206-0.84-0.31-1.36-0.31c-0.52,0-0.974,0.104-1.36,0.31c-0.387,0.207-0.71,0.483-0.97,0.83s-0.457,0.74-0.59,1.18
		C53.585,40.777,53.519,41.23,53.519,41.697z"/>
	<path d="M72.379,46.737h-1.681v-6.66c0-0.693-0.149-1.21-0.449-1.55c-0.301-0.34-0.73-0.51-1.29-0.51
		c-0.374,0-0.733,0.104-1.08,0.31c-0.348,0.207-0.653,0.504-0.92,0.891c-0.268,0.387-0.48,0.859-0.641,1.42
		c-0.16,0.56-0.24,1.187-0.24,1.88v4.22h-1.68v-10.08h1.68v1.86c0.374-0.653,0.847-1.153,1.421-1.5
		c0.572-0.347,1.213-0.521,1.92-0.521c0.92,0,1.643,0.273,2.17,0.82c0.526,0.547,0.79,1.32,0.79,2.32V46.737z"/>
</g>
<g>
	<path fill-rule="evenodd" clip-rule="evenodd" fill="none" stroke="#000000" stroke-width="1.5" stroke-miterlimit="10" d="
		M145.132,25.188c-3.023,0-6.102,0-9.188,0c0-0.434-0.014-0.859,0.006-1.284c0.009-0.232-0.078-0.383-0.256-0.541
		c-2.721-2.42-4.227-5.389-4.403-8.903c-0.208-4.146,3.229-8.013,7.619-8.66c5.063-0.746,9.629,2.252,10.584,6.962
		c0.34,1.679,0.095,3.322-0.458,4.93c-0.743,2.156-1.941,4.053-3.715,5.613c-0.108,0.096-0.177,0.273-0.185,0.418
		c-0.027,0.453-0.016,0.909-0.021,1.364C145.116,25.107,145.132,25.123,145.132,25.188z"/>
	<path fill-rule="evenodd" clip-rule="evenodd" fill="none" stroke="#41C363" stroke-width="1.5" stroke-miterlimit="10" d="
		M136.098,27.534c2.983,0,5.905,0,8.873,0"/>
	<path fill-rule="evenodd" clip-rule="evenodd" fill="none" stroke="#000000" stroke-width="1.5" stroke-miterlimit="10" d="
		M136.879,29.922c2.416,0,4.802,0,7.189,0c-0.047,1.246-1.454,2.286-3.213,2.397C138.778,32.45,137.187,31.506,136.879,29.922z"/>
</g>
<g>
	<g>
		<g>
			<g>
				<path fill="none" stroke="#000000" stroke-width="1.5" stroke-miterlimit="10" d="M140.494,2.993V0.795"/>
			</g>
		</g>
	</g>
	<g>
		<g>
			<g>
				<path fill="none" stroke="#000000" stroke-width="1.5" stroke-miterlimit="10" d="M149.318,3.425l-1.67,1.276"/>
			</g>
		</g>
	</g>
	<g>
		<g>
			<g>
				<path fill="none" stroke="#000000" stroke-width="1.5" stroke-miterlimit="10" d="M131.907,3.425l1.67,1.276"/>
			</g>
		</g>
	</g>
</g>
<path fill="none" stroke="#41C363" stroke-width="1.5" stroke-miterlimit="10" d="M146.051,14.347
	c-0.07-0.074-0.147-0.146-0.222-0.214c-1.531-1.379-3.329-2.045-5.782-2.049c-1.611,0.034-3.374,0.705-4.871,2.06 M144.25,16.525
	c-1.063-0.975-2.312-1.463-3.752-1.47c-1.38,0.001-2.714,0.512-3.678,1.406 M142.621,18.823c-0.597-0.551-1.31-0.806-2.115-0.844
	c-0.793,0.027-1.513,0.271-2.114,0.811"/>
</svg>
