<?xml version="1.0" encoding="utf-8"?>
<!-- Generator: Adobe Illustrator 16.0.3, SVG Export Plug-In . SVG Version: 6.00 Build 0)  -->
<!DOCTYPE svg PUBLIC "-//W3C//DTD SVG 1.1//EN" "http://www.w3.org/Graphics/SVG/1.1/DTD/svg11.dtd">
<svg version="1.1" id="Layer_1" xmlns="http://www.w3.org/2000/svg" xmlns:xlink="http://www.w3.org/1999/xlink" x="0px" y="0px"
	 width="382.7px" height="68px" viewBox="0 0 382.7 68" enable-background="new 0 0 382.7 68" xml:space="preserve">
<g>
	<g>
		<path fill="none" stroke="#FFFFFF" stroke-width="1.5" d="M12.621,26.559c-1.753,0.006-3.506,0.01-5.26,0.017
			c-0.73,0.006-0.882-0.146-0.94-0.87c-0.2-2.403,0.187-4.715,1.244-6.881c2.046-4.182,5.364-6.794,9.952-7.614
			c2.798-0.498,5.532-0.137,7.938,0.938"/>
		<path fill="none" stroke="#FFFFFF" stroke-width="1.5" d="M20.517,29.174c-1.439-0.032-2.621-0.804-3.171-2.13
			c-0.625-1.5-0.991-3.079-1.297-4.669c-0.215-1.113-0.386-2.236-0.562-3.354c-0.025-0.171-0.011-0.369,0.047-0.533
			c0.101-0.29,0.456-0.438,0.757-0.341c0.133,0.044,0.265,0.109,0.377,0.192c1.942,1.431,3.843,2.914,5.551,4.627
			c0.293,0.292,0.567,0.608,0.845,0.919c1.575,1.761,0.727,4.457-1.596,5.122C21.159,29.091,20.833,29.12,20.517,29.174z"/>
		<path fill="none" stroke="#41C363" stroke-width="1.5" d="M25.479,12.113c2.834,1.246,5.224,3.476,6.724,6.454
			c1.114,2.21,1.563,4.563,1.372,7.037c-0.01,0.111-0.01,0.223-0.018,0.334c-0.029,0.371-0.273,0.632-0.646,0.632
			c-1.914,0.001-3.229-0.005-5.145-0.015"/>
	</g>
</g>
<g>
	<g>
		<path fill="none" stroke="#FFFFFF" stroke-width="1.5" d="M12.621,57.141c-1.753,0.006-3.506,0.01-5.26,0.021
			c-0.73,0.007-0.882-0.146-0.94-0.869c-0.2-2.398,0.187-4.723,1.244-6.889c2.046-4.182,5.364-6.795,9.952-7.607
			c2.798-0.498,5.532-0.143,7.938,0.938"/>
		<path fill="none" stroke="#FFFFFF" stroke-width="1.5" d="M20.517,59.754c-1.439-0.031-2.621-0.804-3.171-2.13
			c-0.625-1.5-0.991-3.079-1.297-4.67c-0.215-1.113-0.386-2.236-0.562-3.354c-0.025-0.172-0.011-0.369,0.047-0.533
			c0.101-0.289,0.456-0.438,0.757-0.342c0.133,0.045,0.265,0.109,0.377,0.192c1.942,1.431,3.843,2.914,5.551,4.627
			c0.293,0.293,0.567,0.608,0.845,0.921c1.575,1.76,0.727,4.456-1.596,5.121C21.159,59.671,20.833,59.699,20.517,59.754z"/>
		<path fill="none" stroke="#000000" stroke-width="1.5" d="M25.479,42.691c2.834,1.246,5.224,3.478,6.724,6.455
			c1.114,2.209,1.563,4.563,1.372,7.035c-0.01,0.105-0.01,0.225-0.018,0.334c-0.029,0.366-0.273,0.633-0.646,0.633
			c-1.914,0.002-3.229-0.004-5.145-0.021"/>
	</g>
</g>
<rect x="60.007" y="21.883" fill="none" stroke="#FFFFFF" stroke-width="1.5" stroke-miterlimit="10" width="4.79" height="7.565"/>
<rect x="56.014" y="9.149" fill="none" stroke="#FFFFFF" stroke-width="1.5" stroke-miterlimit="10" width="12.776" height="20.299"/>
<polyline fill="none" stroke="#FFFFFF" stroke-width="1.5" stroke-miterlimit="10" points="72.858,29.448 68.791,29.448 
	68.791,16.885 79.284,16.885 79.284,20.754 "/>
<polyline fill="none" stroke="#41C363" stroke-width="1.5" stroke-miterlimit="10" points="79.284,20.689 79.284,29.448 
	72.838,29.448 "/>
<line fill="none" stroke="#41C363" stroke-width="1.5" stroke-miterlimit="10" x1="64.761" y1="13.366" x2="60.011" y2="13.366"/>
<line fill="none" stroke="#FFFFFF" stroke-width="1.5" stroke-miterlimit="10" x1="64.761" y1="17.723" x2="60.011" y2="17.723"/>
<line fill="none" stroke="#FFFFFF" stroke-width="1.5" stroke-miterlimit="10" x1="75.798" y1="21.331" x2="72.214" y2="21.331"/>
<line fill="none" stroke="#FFFFFF" stroke-width="1.5" stroke-miterlimit="10" x1="75.798" y1="25.687" x2="72.214" y2="25.687"/>
<rect x="60.007" y="51.883" fill="none" stroke="#FFFFFF" stroke-width="1.5" stroke-miterlimit="10" width="4.79" height="7.565"/>
<rect x="56.014" y="39.148" fill="none" stroke="#FFFFFF" stroke-width="1.5" stroke-miterlimit="10" width="12.776" height="20.3"/>
<polyline fill="none" stroke="#FFFFFF" stroke-width="1.5" stroke-miterlimit="10" points="72.858,59.448 68.791,59.448 
	68.791,46.885 79.284,46.885 79.284,50.754 "/>
<polyline fill="none" stroke="#000000" stroke-width="1.5" stroke-miterlimit="10" points="79.284,50.689 79.284,59.448 
	72.838,59.448 "/>
<line fill="none" stroke="#000000" stroke-width="1.5" stroke-miterlimit="10" x1="64.761" y1="43.366" x2="60.011" y2="43.366"/>
<line fill="none" stroke="#FFFFFF" stroke-width="1.5" stroke-miterlimit="10" x1="64.761" y1="47.723" x2="60.011" y2="47.723"/>
<line fill="none" stroke="#FFFFFF" stroke-width="1.5" stroke-miterlimit="10" x1="75.798" y1="51.331" x2="72.214" y2="51.331"/>
<line fill="none" stroke="#FFFFFF" stroke-width="1.5" stroke-miterlimit="10" x1="75.798" y1="55.688" x2="72.214" y2="55.688"/>
<path fill="none" stroke="#41C363" stroke-width="1.5" stroke-miterlimit="10" d="M147.924,25.736v0.854
	c0,1.33-1.077,2.407-2.408,2.407l0,0c-1.33,0-2.406-1.077-2.406-2.407v-0.854"/>
<path fill="none" stroke="#FFFFFF" stroke-width="1.5" stroke-miterlimit="10" d="M137.338,25.684v-7.997
	c0-4.408,3.584-7.993,7.994-7.993c4.408,0,7.994,3.584,7.994,7.993v7.997C151.778,25.684,137.943,25.684,137.338,25.684z
	 M155.667,25.684c-1.551,0-20.063,0-20.668,0 M145.329,7.049V9.75"/>
<path fill="none" stroke="#000000" stroke-width="1.5" stroke-miterlimit="10" d="M147.924,56.736v0.854
	c0,1.33-1.077,2.407-2.408,2.407l0,0c-1.33,0-2.406-1.077-2.406-2.407v-0.854"/>
<path fill="none" stroke="#FFFFFF" stroke-width="1.5" stroke-miterlimit="10" d="M137.338,56.684v-7.996
	c0-4.408,3.584-7.994,7.994-7.994c4.408,0,7.994,3.584,7.994,7.994v7.996C151.778,56.684,137.943,56.684,137.338,56.684z
	 M155.667,56.684c-1.551,0-20.063,0-20.668,0 M145.329,38.049v2.701"/>
<g>
	<g>
		<g>
			<g>
				<g>
					<path fill="none" stroke="#FFFFFF" stroke-width="1.5" stroke-miterlimit="10" d="M109.551,30.703
						c-1.77,0-3.213-1.441-3.213-3.216v-1.638h5.849 M106.346,25.878v-0.869c0-0.315-0.172-0.603-0.438-0.762
						c-2.283-1.308-3.695-3.751-3.695-6.379c0-4.053,3.297-7.35,7.348-7.35c2.66,0,4.995,1.419,6.285,3.541"/>
				</g>
			</g>
		</g>
	</g>
	<g>
		<g>
			<g>
				<path fill="none" stroke="#FFFFFF" stroke-width="1.5" stroke-miterlimit="10" d="M109.633,25.869v-6.065"/>
			</g>
		</g>
	</g>
	<path fill="none" stroke="#41C363" stroke-width="1.5" stroke-miterlimit="10" d="M111.668,18.285c0,1.165-0.944,2.116-2.114,2.116
		c-1.153,0-2.104-0.951-2.104-2.116"/>
	<g>
		<g>
			<g>
				<path fill="none" stroke="#41C363" stroke-width="1.5" stroke-miterlimit="10" d="M112.769,25.849l0.005,1.638l0,0
					c0,1.774-1.447,3.216-3.223,3.216 M115.808,13.992c0.7,1.126,1.106,2.454,1.106,3.875c-0.006,2.627-1.422,5.073-3.699,6.379
					c-0.274,0.16-0.438,0.447-0.438,0.762v0.869"/>
			</g>
		</g>
	</g>
	<g>
		<g>
			<g>
				<path fill="none" stroke="#FFFFFF" stroke-width="1.5" stroke-miterlimit="10" d="M109.625,8.185V5.353"/>
			</g>
		</g>
	</g>
	<g>
		<g>
			<g>
				<path fill="none" stroke="#41C363" stroke-width="1.5" stroke-miterlimit="10" d="M103.011,7.232l1.626,2.229"/>
			</g>
		</g>
	</g>
	<g>
		<g>
			<g>
				<path fill="none" stroke="#FFFFFF" stroke-width="1.5" stroke-miterlimit="10" d="M116.525,7.365l-2.211,1.94"/>
			</g>
		</g>
	</g>
</g>
<g>
	<g>
		<g>
			<g>
				<g>
					<path fill="none" stroke="#FFFFFF" stroke-width="1.5" stroke-miterlimit="10" d="M109.551,61.703
						c-1.77,0-3.213-1.441-3.213-3.217V56.85h5.849 M106.346,56.878V56.01c0-0.316-0.172-0.604-0.438-0.763
						c-2.283-1.308-3.695-3.751-3.695-6.379c0-4.054,3.297-7.351,7.348-7.351c2.66,0,4.995,1.42,6.285,3.541"/>
				</g>
			</g>
		</g>
	</g>
	<g>
		<g>
			<g>
				<path fill="none" stroke="#FFFFFF" stroke-width="1.5" stroke-miterlimit="10" d="M109.633,56.869v-6.064"/>
			</g>
		</g>
	</g>
	<path fill="none" stroke="#000000" stroke-width="1.5" stroke-miterlimit="10" d="M111.668,49.285c0,1.164-0.944,2.115-2.114,2.115
		c-1.153,0-2.104-0.951-2.104-2.115"/>
	<g>
		<g>
			<g>
				<path fill="none" stroke="#000000" stroke-width="1.5" stroke-miterlimit="10" d="M112.769,56.85l0.005,1.637l0,0
					c0,1.775-1.447,3.22-3.223,3.22 M115.808,44.992c0.7,1.126,1.106,2.453,1.106,3.875c-0.006,2.627-1.422,5.072-3.699,6.379
					c-0.274,0.16-0.438,0.447-0.438,0.762v0.869"/>
			</g>
		</g>
	</g>
	<g>
		<g>
			<g>
				<path fill="none" stroke="#FFFFFF" stroke-width="1.5" stroke-miterlimit="10" d="M109.625,39.186v-2.832"/>
			</g>
		</g>
	</g>
	<g>
		<g>
			<g>
				<path fill="none" stroke="#000000" stroke-width="1.5" stroke-miterlimit="10" d="M103.011,38.232l1.626,2.229"/>
			</g>
		</g>
	</g>
	<g>
		<g>
			<g>
				<path fill="none" stroke="#FFFFFF" stroke-width="1.5" stroke-miterlimit="10" d="M116.525,38.365l-2.211,1.939"/>
			</g>
		</g>
	</g>
</g>
<g>
	<path fill="none" stroke="#FFFFFF" stroke-width="1.5" stroke-miterlimit="10" d="M183.377,24.31c0-2.941-2.383-5.323-5.317-5.323"
		/>
	<circle fill="none" stroke="#FFFFFF" stroke-width="1.5" stroke-miterlimit="10" cx="178.062" cy="11.041" r="5.321"/>
	<path fill="none" stroke="#41C363" stroke-width="1.5" stroke-miterlimit="10" d="M178.062,18.987
		c-2.938,0-5.324,2.382-5.324,5.323"/>
	<path fill="none" stroke="#FFFFFF" stroke-width="1.5" stroke-miterlimit="10" d="M172.739,24.31v5.556h8.713"/>
	<path fill="none" stroke="#FFFFFF" stroke-width="1.5" stroke-miterlimit="10" d="M174.667,29.865h8.711V24.31"/>
</g>
<g>
	<path fill="none" stroke="#000000" stroke-width="1.5" stroke-miterlimit="10" d="M183.377,54.645c0-2.939-2.383-5.324-5.317-5.324
		"/>
	<circle fill="none" stroke="#000000" stroke-width="1.5" stroke-miterlimit="10" cx="178.062" cy="41.375" r="5.32"/>
	<path fill="none" stroke="#FFFFFF" stroke-width="1.5" stroke-miterlimit="10" d="M178.062,49.32c-2.938,0-5.324,2.381-5.324,5.322
		"/>
	<path fill="none" stroke="#000000" stroke-width="1.5" stroke-miterlimit="10" d="M172.739,54.645V60.2h8.713"/>
	<path fill="none" stroke="#000000" stroke-width="1.5" stroke-miterlimit="10" d="M174.667,60.199h8.711v-5.557"/>
</g>
<polyline fill="none" stroke="#41C363" stroke-width="1.5" stroke-linecap="round" stroke-linejoin="round" stroke-miterlimit="10" points="
	209.718,20.963 209.074,20.963 209.074,14.573 213.015,14.573 "/>
<polyline fill="none" stroke="#FFFFFF" stroke-width="1.5" stroke-linecap="round" stroke-linejoin="round" stroke-miterlimit="10" points="
	214.378,14.573 215.462,14.573 215.462,20.963 212.271,20.963 "/>
<line fill="none" stroke="#41C363" stroke-width="1.5" stroke-linecap="round" stroke-linejoin="round" stroke-miterlimit="10" x1="224.458" y1="23.234" x2="219.401" y2="23.234"/>
<line fill="none" stroke="#FFFFFF" stroke-width="1.5" stroke-linecap="round" stroke-linejoin="round" stroke-miterlimit="10" x1="219.401" y1="12.303" x2="224.458" y2="12.303"/>
<line fill="none" stroke="#FFFFFF" stroke-width="1.5" stroke-linecap="round" stroke-linejoin="round" stroke-miterlimit="10" x1="219.401" y1="17.769" x2="224.458" y2="17.769"/>
<line fill="none" stroke="#FFFFFF" stroke-width="1.5" stroke-linecap="round" stroke-linejoin="round" stroke-miterlimit="10" x1="205.134" y1="23.234" x2="200.078" y2="23.234"/>
<line fill="none" stroke="#FFFFFF" stroke-width="1.5" stroke-linecap="round" stroke-linejoin="round" stroke-miterlimit="10" x1="200.078" y1="12.303" x2="205.134" y2="12.303"/>
<line fill="none" stroke="#FFFFFF" stroke-width="1.5" stroke-linecap="round" stroke-linejoin="round" stroke-miterlimit="10" x1="200.078" y1="17.769" x2="205.134" y2="17.769"/>
<line fill="none" stroke="#FFFFFF" stroke-width="1.5" stroke-linecap="round" stroke-linejoin="round" stroke-miterlimit="10" x1="217.733" y1="5.578" x2="217.733" y2="10.635"/>
<line fill="none" stroke="#FFFFFF" stroke-width="1.5" stroke-linecap="round" stroke-linejoin="round" stroke-miterlimit="10" x1="206.806" y1="10.635" x2="206.806" y2="5.578"/>
<line fill="none" stroke="#FFFFFF" stroke-width="1.5" stroke-linecap="round" stroke-linejoin="round" stroke-miterlimit="10" x1="212.271" y1="10.635" x2="212.271" y2="5.578"/>
<line fill="none" stroke="#FFFFFF" stroke-width="1.5" stroke-linecap="round" stroke-linejoin="round" stroke-miterlimit="10" x1="217.733" y1="24.902" x2="217.733" y2="29.96"/>
<line fill="none" stroke="#FFFFFF" stroke-width="1.5" stroke-linecap="round" stroke-linejoin="round" stroke-miterlimit="10" x1="206.806" y1="29.96" x2="206.806" y2="24.902"/>
<line fill="none" stroke="#FFFFFF" stroke-width="1.5" stroke-linecap="round" stroke-linejoin="round" stroke-miterlimit="10" x1="212.271" y1="29.96" x2="212.271" y2="24.902"/>
<polyline fill="none" stroke="#FFFFFF" stroke-width="1.5" stroke-linecap="round" stroke-linejoin="round" stroke-miterlimit="10" points="
	218.496,26.349 203.688,26.349 203.688,9.188 220.851,9.188 220.851,18.383 "/>
<polyline fill="none" stroke="#41C363" stroke-width="1.5" stroke-linecap="square" stroke-linejoin="round" stroke-miterlimit="10" points="
	220.851,19.175 220.851,26.349 219.187,26.349 "/>
<polyline fill="none" stroke="#000000" stroke-width="1.5" stroke-linecap="round" stroke-linejoin="round" stroke-miterlimit="10" points="
	209.718,50.963 209.074,50.963 209.074,44.573 213.015,44.573 "/>
<polyline fill="none" stroke="#FFFFFF" stroke-width="1.5" stroke-linecap="round" stroke-linejoin="round" stroke-miterlimit="10" points="
	214.378,44.573 215.462,44.573 215.462,50.963 212.271,50.963 "/>
<line fill="none" stroke="#000000" stroke-width="1.5" stroke-linecap="round" stroke-linejoin="round" stroke-miterlimit="10" x1="224.458" y1="53.234" x2="219.401" y2="53.234"/>
<line fill="none" stroke="#FFFFFF" stroke-width="1.5" stroke-linecap="round" stroke-linejoin="round" stroke-miterlimit="10" x1="219.401" y1="42.303" x2="224.458" y2="42.303"/>
<line fill="none" stroke="#FFFFFF" stroke-width="1.5" stroke-linecap="round" stroke-linejoin="round" stroke-miterlimit="10" x1="219.401" y1="47.77" x2="224.458" y2="47.77"/>
<line fill="none" stroke="#FFFFFF" stroke-width="1.5" stroke-linecap="round" stroke-linejoin="round" stroke-miterlimit="10" x1="205.134" y1="53.234" x2="200.078" y2="53.234"/>
<line fill="none" stroke="#FFFFFF" stroke-width="1.5" stroke-linecap="round" stroke-linejoin="round" stroke-miterlimit="10" x1="200.078" y1="42.303" x2="205.134" y2="42.303"/>
<line fill="none" stroke="#FFFFFF" stroke-width="1.5" stroke-linecap="round" stroke-linejoin="round" stroke-miterlimit="10" x1="200.078" y1="47.77" x2="205.134" y2="47.77"/>
<line fill="none" stroke="#FFFFFF" stroke-width="1.5" stroke-linecap="round" stroke-linejoin="round" stroke-miterlimit="10" x1="217.733" y1="35.578" x2="217.733" y2="40.635"/>
<line fill="none" stroke="#FFFFFF" stroke-width="1.5" stroke-linecap="round" stroke-linejoin="round" stroke-miterlimit="10" x1="206.806" y1="40.635" x2="206.806" y2="35.578"/>
<line fill="none" stroke="#FFFFFF" stroke-width="1.5" stroke-linecap="round" stroke-linejoin="round" stroke-miterlimit="10" x1="212.271" y1="40.635" x2="212.271" y2="35.578"/>
<line fill="none" stroke="#FFFFFF" stroke-width="1.5" stroke-linecap="round" stroke-linejoin="round" stroke-miterlimit="10" x1="217.733" y1="54.902" x2="217.733" y2="59.96"/>
<line fill="none" stroke="#FFFFFF" stroke-width="1.5" stroke-linecap="round" stroke-linejoin="round" stroke-miterlimit="10" x1="206.806" y1="59.96" x2="206.806" y2="54.902"/>
<line fill="none" stroke="#FFFFFF" stroke-width="1.5" stroke-linecap="round" stroke-linejoin="round" stroke-miterlimit="10" x1="212.271" y1="59.96" x2="212.271" y2="54.902"/>
<polyline fill="none" stroke="#FFFFFF" stroke-width="1.5" stroke-linecap="round" stroke-linejoin="round" stroke-miterlimit="10" points="
	218.496,56.35 203.688,56.35 203.688,39.188 220.851,39.188 220.851,48.383 "/>
<polyline fill="none" stroke="#000000" stroke-width="1.5" stroke-linecap="square" stroke-linejoin="round" stroke-miterlimit="10" points="
	220.851,49.175 220.851,56.35 219.187,56.35 "/>
<g>
	<path fill="none" stroke="#FFFFFF" stroke-width="1.5" stroke-miterlimit="10" d="M247.871,28.433c-0.345,0-0.692,0-1.033,0
		c-1.444,0-4.438,0.002-5.883-0.001c-1.138-0.001-2.017-0.667-2.304-1.741c-0.055-0.213-0.08-0.442-0.08-0.664
		c-0.01-2.685-0.004-5.368-0.004-8.048c0-2.673-0.006-5.349,0-8.022c0.002-1.405,0.998-2.417,2.408-2.417
		c4.69-0.004,9.394,0.003,14.094-0.006c1.373-0.001,2.412,1.103,2.41,2.351c-0.021,2.319-0.002,6.96-0.008,9.28"/>
</g>
<g>
	<path fill="none" stroke="#FFFFFF" stroke-width="1.5" stroke-miterlimit="10" d="M243.267,11.976c-0.086,0-0.16,0.071-0.16,0.158
		v2.04c0,0.088,0.07,0.159,0.16,0.159h8.982c0.088,0,0.158-0.067,0.158-0.159v-2.04c0-0.089-0.07-0.158-0.158-0.158H243.267z"/>
</g>
<g>
	<g>
		<path fill="none" stroke="#41C363" stroke-width="1.5" stroke-miterlimit="10" d="M250.569,19.62
			c4.685,0.589,8.361,4.445,8.927,8.912"/>
	</g>
	<g>
		<path fill="none" stroke="#FFFFFF" stroke-width="1.5" stroke-miterlimit="10" d="M250.563,22.906
			c3.024,0.576,5.174,3.077,5.629,5.627"/>
	</g>
	<g>
		<path fill="#FFFFFF" d="M251.601,26.674c0.521,0.002,0.938,0.427,0.93,0.96c-0.006,0.513-0.424,0.919-0.947,0.917
			c-0.523-0.003-0.936-0.425-0.934-0.962C250.66,27.082,251.08,26.672,251.601,26.674z"/>
	</g>
</g>
<g>
	<path fill="none" stroke="#FFFFFF" stroke-width="1.5" stroke-miterlimit="10" d="M247.606,17.787h-5.127"/>
</g>
<g>
	<path fill="none" stroke="#FFFFFF" stroke-width="1.5" stroke-miterlimit="10" d="M247.606,21.06h-5.127"/>
</g>
<g>
	<path fill="none" stroke="#FFFFFF" stroke-width="1.5" stroke-miterlimit="10" d="M247.606,24.334h-5.127"/>
</g>
<g>
	<path fill="none" stroke="#41C363" stroke-width="1.5" stroke-miterlimit="10" d="M247.871,28.433c-0.345,0-0.692,0-1.033,0
		c-1.444,0-4.438,0.002-5.883-0.001c-1.138-0.001-2.017-0.667-2.304-1.741c-0.055-0.213-0.08-0.442-0.08-0.664
		c-0.01-2.685-0.004-5.368-0.004-8.048"/>
</g>
<g>
	<path fill="none" stroke="#FFFFFF" stroke-width="1.5" stroke-miterlimit="10" d="M247.871,58.818c-0.345,0-0.692,0-1.033,0
		c-1.444,0-4.438,0.002-5.883-0.002c-1.138,0-2.017-0.666-2.304-1.74c-0.055-0.213-0.08-0.441-0.08-0.664
		c-0.01-2.686-0.004-5.367-0.004-8.047c0-2.674-0.006-5.348,0-8.021c0.002-1.406,0.998-2.414,2.408-2.414
		c4.69-0.006,9.394,0.002,14.094-0.01c1.373-0.002,2.412,1.102,2.41,2.352c-0.021,2.318-0.002,6.961-0.008,9.279"/>
</g>
<g>
	<path fill="none" stroke="#FFFFFF" stroke-width="1.5" stroke-miterlimit="10" d="M243.267,42.361c-0.086,0-0.16,0.07-0.16,0.158
		v2.039c0,0.09,0.07,0.156,0.16,0.156h8.982c0.088,0,0.158-0.063,0.158-0.156V42.52c0-0.09-0.07-0.158-0.158-0.158H243.267
		L243.267,42.361z"/>
</g>
<g>
	<g>
		<path fill="none" stroke="#000000" stroke-width="1.5" stroke-miterlimit="10" d="M250.569,50.005
			c4.685,0.589,8.361,4.445,8.927,8.911"/>
	</g>
	<g>
		<path fill="none" stroke="#FFFFFF" stroke-width="1.5" stroke-miterlimit="10" d="M250.563,53.291
			c3.024,0.576,5.174,3.076,5.629,5.627"/>
	</g>
	<g>
		<path fill="#FFFFFF" d="M251.601,57.061c0.521,0,0.938,0.426,0.93,0.959c-0.006,0.517-0.424,0.914-0.947,0.912
			s-0.936-0.424-0.934-0.961C250.66,57.467,251.08,57.059,251.601,57.061z"/>
	</g>
</g>
<g>
	<path fill="none" stroke="#FFFFFF" stroke-width="1.5" stroke-miterlimit="10" d="M247.606,48.172h-5.127"/>
</g>
<g>
	<path fill="none" stroke="#FFFFFF" stroke-width="1.5" stroke-miterlimit="10" d="M247.606,51.445h-5.127"/>
</g>
<g>
	<path fill="none" stroke="#FFFFFF" stroke-width="1.5" stroke-miterlimit="10" d="M247.606,54.719h-5.127"/>
</g>
<g>
	<path fill="none" stroke="#000000" stroke-width="1.5" stroke-miterlimit="10" d="M247.871,58.818c-0.345,0-0.692,0-1.033,0
		c-1.444,0-4.438,0.002-5.883-0.002c-1.138,0-2.017-0.666-2.304-1.74c-0.055-0.213-0.08-0.441-0.08-0.664
		c-0.01-2.686-0.004-5.367-0.004-8.047"/>
</g>
<line fill="none" stroke="#FFFFFF" stroke-width="1.5" stroke-linecap="round" stroke-linejoin="round" stroke-miterlimit="10" x1="285.058" y1="15.712" x2="285.058" y2="20.278"/>
<circle fill="#FFFFFF" cx="285.058" cy="24.012" r="1.094"/>
<polyline fill="none" stroke="#FFFFFF" stroke-width="1.5" stroke-linecap="round" stroke-linejoin="round" stroke-miterlimit="10" points="
	284.229,9.137 285.058,7.647 296.365,28 278.968,28 "/>
<polyline fill="none" stroke="#41C363" stroke-width="1.5" stroke-linecap="round" stroke-linejoin="round" stroke-miterlimit="10" points="
	279.144,28 273.75,28 285.058,7.647 "/>
<line fill="none" stroke="#FFFFFF" stroke-width="1.5" stroke-linecap="round" stroke-linejoin="round" stroke-miterlimit="10" x1="285.058" y1="46.712" x2="285.058" y2="51.277"/>
<circle fill="#FFFFFF" cx="285.058" cy="55.012" r="1.094"/>
<polyline fill="none" stroke="#FFFFFF" stroke-width="1.5" stroke-linecap="round" stroke-linejoin="round" stroke-miterlimit="10" points="
	284.229,40.137 285.058,38.646 296.365,59 278.968,59 "/>
<polyline fill="none" stroke="#000000" stroke-width="1.5" stroke-linecap="round" stroke-linejoin="round" stroke-miterlimit="10" points="
	279.144,59 273.75,59 285.058,38.646 "/>
<g>
	<line fill="none" stroke="#FFFFFF" stroke-width="1.5" stroke-miterlimit="10" x1="318.25" y1="25.868" x2="318.25" y2="28.458"/>
	<line fill="none" stroke="#FFFFFF" stroke-width="1.5" stroke-miterlimit="10" x1="316" y1="25.911" x2="325.206" y2="25.911"/>
	<g>
		<path fill="none" stroke="#FFFFFF" stroke-width="1.5" stroke-miterlimit="10" d="M327.82,28.49c-1.42,0-2.57-1.154-2.57-2.573
			s1.152-2.572,2.57-2.572s2.566,1.153,2.566,2.572S329.238,28.49,327.82,28.49z"/>
	</g>
	<line fill="none" stroke="#FFFFFF" stroke-width="1.5" stroke-miterlimit="10" x1="322.25" y1="25.868" x2="322.25" y2="30.458"/>
	<g>
		<path fill="none" stroke="#41C363" stroke-width="1.5" stroke-miterlimit="10" d="M327.82,23.344c1.418,0,2.566,1.153,2.566,2.572
			c0,1.025-0.604,1.913-1.473,2.326"/>
	</g>
</g>
<g>
	<path fill="none" stroke="#FFFFFF" stroke-width="1.5" stroke-miterlimit="10" d="M322.191,23.409c0-0.195-0.016-0.388-0.027-0.579
		c-0.291-3.132-2.928-5.581-6.131-5.581"/>
	<circle fill="none" stroke="#FFFFFF" stroke-width="1.5" stroke-miterlimit="10" cx="316.035" cy="8.053" r="6.158"/>
	<path fill="none" stroke="#41C363" stroke-width="1.5" stroke-miterlimit="10" d="M316.035,17.249c-3.399,0-6.16,2.756-6.16,6.16"
		/>
	<path fill="none" stroke="#FFFFFF" stroke-width="1.5" stroke-miterlimit="10" d="M309.876,23.409v6.43h5.083"/>
	<path fill="none" stroke="#FFFFFF" stroke-width="1.5" stroke-miterlimit="10" d="M322.191,23.409"/>
	<path fill="none" stroke="#FFFFFF" stroke-width="1.5" stroke-miterlimit="10" d="M312.109,29.838"/>
</g>
<g>
	<line fill="none" stroke="#FFFFFF" stroke-width="1.5" stroke-miterlimit="10" x1="318.25" y1="61.305" x2="318.25" y2="63.895"/>
	<line fill="none" stroke="#FFFFFF" stroke-width="1.5" stroke-miterlimit="10" x1="316" y1="61.348" x2="325.206" y2="61.348"/>
	<g>
		<path fill="none" stroke="#FFFFFF" stroke-width="1.5" stroke-miterlimit="10" d="M329.069,63.604
			c-0.37,0.207-0.796,0.324-1.249,0.324c-1.42,0-2.57-1.154-2.57-2.574c0-1.418,1.152-2.567,2.57-2.567
			c0.089,0,0.177,0.005,0.263,0.014"/>
	</g>
	<line fill="none" stroke="#FFFFFF" stroke-width="1.5" stroke-miterlimit="10" x1="322.25" y1="61.305" x2="322.25" y2="65.895"/>
	<g>
		<path fill="none" stroke="#000000" stroke-width="1.5" stroke-miterlimit="10" d="M327.82,58.781c1.418,0,2.566,1.154,2.566,2.572
			c0,1.021-0.604,1.914-1.473,2.326"/>
	</g>
</g>
<g>
	<path fill="none" stroke="#FFFFFF" stroke-width="1.5" stroke-miterlimit="10" d="M322.191,58.846c0-0.195-0.016-0.389-0.027-0.578
		c-0.291-3.133-2.928-5.582-6.131-5.582"/>
	<circle fill="none" stroke="#FFFFFF" stroke-width="1.5" stroke-miterlimit="10" cx="316.035" cy="43.49" r="6.158"/>
	<path fill="none" stroke="#000000" stroke-width="1.5" stroke-miterlimit="10" d="M316.035,52.686c-3.399,0-6.16,2.756-6.16,6.16"
		/>
	<path fill="none" stroke="#FFFFFF" stroke-width="1.5" stroke-miterlimit="10" d="M309.876,58.846v6.43h5.083"/>
	<path fill="none" stroke="#FFFFFF" stroke-width="1.5" stroke-miterlimit="10" d="M322.191,58.846"/>
	<path fill="none" stroke="#FFFFFF" stroke-width="1.5" stroke-miterlimit="10" d="M312.109,65.275"/>
</g>
<g>
	<path fill="none" stroke="#FFFFFF" stroke-width="1.5" stroke-miterlimit="10" d="M373.497,27.173c-9.115,0-17.062,0-26.177-0.003
		c-0.039,0-0.139,0.073-0.135-0.056c0.117-0.403,0.239-0.806,0.354-1.21c0.611-2.188,1.221-4.375,1.826-6.564
		c0.031-0.117,0.085-0.165,0.205-0.191c0.953-0.206,1.908-0.42,2.861-0.633c0.047-0.01,0.096-0.017,0.159-0.029
		c0,1.538,0,3.061,0,4.592"/>
	<path fill="none" stroke="#FFFFFF" stroke-width="1.5" stroke-miterlimit="10" d="M373.092,19.709
		c-0.009,1.813-0.015,3.625-0.02,5.437v2.761"/>
	<path fill="none" stroke="#FFFFFF" stroke-width="1.5" stroke-miterlimit="10" d="M364.764,23.076c0-1.522,0-3.046,0-4.583
		c0.059,0.005,0.1,0.004,0.143,0.013c0.982,0.217,1.966,0.435,2.945,0.658c0.065,0.015,0.133,0.067,0.178,0.119
		c0.502,0.59,1,1.184,1.5,1.776c0.031,0.038,0.064,0.074,0.131,0.146c0-0.093,0-0.147,0-0.202c0.006-2.142,0.01-4.283,0.021-6.424
		c0-0.17-0.046-0.286-0.166-0.407c-0.482-0.48-0.964-0.962-1.443-1.445"/>
	<path fill="none" stroke="#FFFFFF" stroke-width="1.5" stroke-miterlimit="10" d="M352.99,18.398
		c0.263-0.049,1.867-0.376,2.093-0.5c0.224-0.122,0.381-0.358,0.565-0.544c0.193-0.193,0.388-0.386,0.606-0.604
		c0.028,0.042,0.054,0.086,0.085,0.123c0.535,0.582,1.069,1.163,1.605,1.742c0.029,0.03,0.082,0.052,0.125,0.052
		c0.402,0.003,0.805,0.005,1.207-0.001c0.049-0.001,0.107-0.035,0.145-0.072c0.563-0.604,1.117-1.211,1.686-1.826
		c0.037,0.033,0.07,0.061,0.101,0.09c0.326,0.327,0.649,0.656,0.979,0.978c0.059,0.055,0.139,0.098,0.215,0.117
		c0.211,0.055,1.812,0.471,2.024,0.509"/>
	<path fill="none" stroke="#FFFFFF" stroke-width="1.5" stroke-miterlimit="10" d="M365.809,10.016c-4.771,0-9.539,0-14.32,0"/>
	<path fill="none" stroke="#FFFFFF" stroke-width="1.5" stroke-miterlimit="10" d="M352.786,9.709
		c0.067-0.642,0.116-1.287,0.22-1.922c0.18-1.136,0.508-2.226,1.18-3.182c0.733-1.05,1.756-1.66,3.002-1.903
		c0.369-0.072,0.744-0.102,1.119-0.151c0.248,0,0.495,0,0.744,0c0.311,0.038,0.622,0.063,0.93,0.115
		c1.813,0.302,3.063,1.324,3.778,3.007c0.373,0.874,0.569,1.794,0.687,2.733c0.054,0.443,0.089,0.89,0.125,1.334"/>
	<path fill="none" stroke="#FFFFFF" stroke-width="1.5" stroke-miterlimit="10" d="M353.417,10.033c3.519,0,7.024,0,10.545,0
		c-0.122,0.757-0.319,1.482-0.586,2.189c-0.426,1.133-0.985,2.189-1.784,3.107c-0.396,0.453-0.837,0.848-1.365,1.142
		c-1.086,0.604-2.162,0.563-3.219-0.079c-0.816-0.496-1.425-1.2-1.938-1.99c-0.846-1.304-1.373-2.733-1.646-4.259
		C353.42,10.108,353.421,10.075,353.417,10.033z"/>
</g>
<path fill="none" stroke="#41C363" stroke-width="1.5" stroke-miterlimit="10" d="M368.154,12.812
	c-0.512-0.514-1.022-1.029-1.536-1.542c-0.081-0.082-0.089-0.136-0.028-0.236c0.776-1.34,1.551-2.681,2.319-4.024
	c0.059-0.103,0.12-0.137,0.233-0.131c0.178,0.009,0.354,0.002,0.553,0.002c0,1.199,0,2.383,0,3.58c1.179,0,2.338,0,3.509,0
	c0-1.188,0-2.373,0-3.576c0.235,0,0.457-0.006,0.68,0.005c0.04,0.002,0.087,0.071,0.113,0.119c0.771,1.332,1.541,2.664,2.312,3.995
	c0.026,0.046,0.063,0.088,0.092,0.132c0,0.01,0,0.021,0,0.03c-1.068,1.078-2.144,2.155-3.211,3.236
	c-0.045,0.046-0.074,0.129-0.074,0.194c-0.01,1.745-0.018,3.49-0.021,5.235"/>
<g>
	<path fill="none" stroke="#FFFFFF" stroke-width="1.5" stroke-miterlimit="10" d="M373.497,63.174c-9.115,0-17.062,0-26.177-0.004
		c-0.039,0-0.139,0.068-0.135-0.059c0.117-0.4,0.239-0.807,0.354-1.211c0.611-2.188,1.221-4.375,1.826-6.563
		c0.031-0.116,0.085-0.166,0.205-0.19c0.953-0.205,1.908-0.42,2.861-0.633c0.047-0.011,0.096-0.019,0.159-0.029
		c0,1.539,0,3.063,0,4.594"/>
	<path fill="none" stroke="#FFFFFF" stroke-width="1.5" stroke-miterlimit="10" d="M373.092,55.709
		c-0.009,1.813-0.015,3.625-0.02,5.438v2.763"/>
	<path fill="none" stroke="#FFFFFF" stroke-width="1.5" stroke-miterlimit="10" d="M364.764,59.076c0-1.521,0-3.047,0-4.582
		c0.059,0.004,0.1,0.004,0.143,0.012c0.982,0.221,1.966,0.438,2.945,0.658c0.065,0.018,0.133,0.066,0.178,0.119
		c0.502,0.592,1,1.184,1.5,1.775c0.031,0.039,0.064,0.073,0.131,0.146c0-0.095,0-0.146,0-0.201c0.006-2.144,0.01-4.28,0.021-6.424
		c0-0.172-0.046-0.287-0.166-0.408c-0.482-0.479-0.964-0.961-1.443-1.44"/>
	<path fill="none" stroke="#FFFFFF" stroke-width="1.5" stroke-miterlimit="10" d="M352.99,54.398
		c0.263-0.049,1.867-0.377,2.093-0.5c0.224-0.123,0.381-0.359,0.565-0.545c0.193-0.191,0.388-0.386,0.606-0.604
		c0.028,0.043,0.054,0.086,0.085,0.123c0.535,0.582,1.069,1.157,1.605,1.737c0.029,0.029,0.082,0.056,0.125,0.056
		c0.402,0.004,0.805,0.004,1.207-0.002c0.049,0,0.107-0.035,0.145-0.072c0.563-0.604,1.117-1.211,1.686-1.825
		c0.037,0.032,0.07,0.063,0.101,0.092c0.326,0.326,0.649,0.653,0.979,0.979c0.059,0.057,0.139,0.1,0.215,0.117
		c0.211,0.055,1.812,0.471,2.024,0.508"/>
	<path fill="none" stroke="#FFFFFF" stroke-width="1.5" stroke-miterlimit="10" d="M365.809,46.016c-4.771,0-9.539,0-14.32,0"/>
	<path fill="none" stroke="#FFFFFF" stroke-width="1.5" stroke-miterlimit="10" d="M352.786,45.709
		c0.067-0.643,0.116-1.287,0.22-1.922c0.18-1.137,0.508-2.227,1.18-3.184c0.733-1.049,1.756-1.66,3.002-1.902
		c0.369-0.072,0.744-0.102,1.119-0.15c0.248,0,0.495,0,0.744,0c0.311,0.037,0.622,0.063,0.93,0.115
		c1.813,0.301,3.063,1.322,3.778,3.006c0.373,0.875,0.569,1.795,0.687,2.734c0.054,0.443,0.089,0.889,0.125,1.334"/>
	<path fill="none" stroke="#FFFFFF" stroke-width="1.5" stroke-miterlimit="10" d="M353.417,46.033c3.519,0,7.024,0,10.545,0
		c-0.122,0.758-0.319,1.482-0.586,2.189c-0.426,1.133-0.985,2.188-1.784,3.104c-0.396,0.448-0.837,0.85-1.365,1.144
		c-1.086,0.604-2.162,0.563-3.219-0.08c-0.816-0.496-1.425-1.199-1.938-1.99c-0.846-1.303-1.373-2.732-1.646-4.258
		C353.42,46.109,353.421,46.074,353.417,46.033z"/>
</g>
<path fill="none" stroke="#000000" stroke-width="1.5" stroke-miterlimit="10" d="M368.154,48.813
	c-0.512-0.516-1.022-1.028-1.536-1.543c-0.081-0.082-0.089-0.137-0.028-0.235c0.776-1.341,1.551-2.681,2.319-4.023
	c0.059-0.104,0.12-0.137,0.233-0.131c0.178,0.013,0.354,0.002,0.553,0.002c0,1.199,0,2.388,0,3.58c1.179,0,2.338,0,3.509,0
	c0-1.188,0-2.373,0-3.576c0.235,0,0.457-0.006,0.68,0.009c0.04,0.002,0.087,0.067,0.113,0.116c0.771,1.33,1.541,2.662,2.312,3.994
	c0.026,0.047,0.063,0.088,0.092,0.136c0,0.01,0,0.02,0,0.026c-1.068,1.078-2.144,2.153-3.211,3.235
	c-0.045,0.046-0.074,0.13-0.074,0.193c-0.01,1.746-0.018,3.49-0.021,5.236"/>
</svg>
